HIERARCHY
ROOT hip
{
  OFFSET 0.0 0.0 0.0
  CHANNELS 6 Xposition Yposition Zposition Zrotation Yrotation Xrotation
  JOINT abdomen
  {
    OFFSET 0.0 20.6881 -0.73152
    CHANNELS 3 Zrotation Xrotation Yrotation
    JOINT chest
    {
      OFFSET 0.0 11.7043 -0.48768
      CHANNELS 3 Zrotation Xrotation Yrotation
      JOINT neck
      {
        OFFSET 0.0 22.1894 -2.19456
        CHANNELS 3 Zrotation Xrotation Yrotation
        JOINT head
        {
          OFFSET -0.24384 7.07133 1.2192
          CHANNELS 3 Zrotation Xrotation Yrotation
          JOINT leftEye
          {
            OFFSET 4.14528 8.04674 8.04672
            CHANNELS 3 Zrotation Xrotation Yrotation
            End Site
            {
              OFFSET 1.0 0.0 0.0
            }
          }
          JOINT rightEye
          {
            OFFSET -3.6576 8.04674 8.04672
            CHANNELS 3 Zrotation Xrotation Yrotation
            End Site
            {
              OFFSET 1.0 0.0 0.0
            }
          }
        }
      }
      JOINT rCollar
      {
        OFFSET -2.68224 19.2634 -4.8768
        CHANNELS 3 Zrotation Xrotation Yrotation
        JOINT rShldr
        {
          OFFSET -8.77824 -1.95073 1.46304
          CHANNELS 3 Zrotation Xrotation Yrotation
          JOINT rForeArm
          {
            OFFSET -28.1742 -1.7115 0.48768
            CHANNELS 3 Zrotation Xrotation Yrotation
            JOINT rHand
            {
              OFFSET -22.5879 0.773209 7.07136
              CHANNELS 3 Zrotation Xrotation Yrotation
              JOINT rThumb1
              {
                OFFSET -1.2192 -0.487915 3.41376
                CHANNELS 3 Zrotation Xrotation Yrotation
                JOINT rThumb2
                {
                  OFFSET -3.37035 -0.52449 3.41376
                  CHANNELS 3 Zrotation Xrotation Yrotation
                  End Site
                  {
                    OFFSET -1.78271 -1.18214 1.43049
                  }
                }
              }
              JOINT rIndex1
              {
                OFFSET -7.75947 0.938293 5.60832
                CHANNELS 3 Zrotation Xrotation Yrotation
                JOINT rIndex2
                {
                  OFFSET -2.54057 -0.884171 1.56538
                  CHANNELS 3 Zrotation Xrotation Yrotation
                  End Site
                  {
                    OFFSET -1.62519 -0.234802 1.16502
                  }
                }
              }
              JOINT rMid1
              {
                OFFSET -8.24714 1.18213 3.41376
                CHANNELS 3 Zrotation Xrotation Yrotation
                JOINT rMid2
                {
                  OFFSET -3.10165 -0.590103 1.0647
                  CHANNELS 3 Zrotation Xrotation Yrotation
                  End Site
                  {
                    OFFSET -2.48547 -0.328903 0.83742
                  }
                }
              }
              JOINT rRing1
              {
                OFFSET -8.82822 0.546677 1.51678
                CHANNELS 3 Zrotation Xrotation Yrotation
                JOINT rRing2
                {
                  OFFSET -2.60934 -0.819778 -0.0198488
                  CHANNELS 3 Zrotation Xrotation Yrotation
                  End Site
                  {
                    OFFSET -2.33842 -0.294052 0.168128
                  }
                }
              }
              JOINT rPinky1
              {
                OFFSET -8.27202 -0.0477905 -0.4584
                CHANNELS 3 Zrotation Xrotation Yrotation
                JOINT rPinky2
                {
                  OFFSET -1.82734 -0.647385 -0.700984
                  CHANNELS 3 Zrotation Xrotation Yrotation
                  End Site
                  {
                    OFFSET -1.69225 -0.51767 -0.607171
                  }
                }
              }
            }
          }
        }
      }
      JOINT lCollar
      {
        OFFSET 2.68224 19.2634 -4.8768
        CHANNELS 3 Zrotation Xrotation Yrotation
        JOINT lShldr
        {
          OFFSET 8.77824 -1.95073 1.46304
          CHANNELS 3 Zrotation Xrotation Yrotation
          JOINT lForeArm
          {
            OFFSET 28.1742 -1.7115 0.48768
            CHANNELS 3 Zrotation Xrotation Yrotation
            JOINT lHand
            {
              OFFSET 22.5879 0.773209 7.07136
              CHANNELS 3 Zrotation Xrotation Yrotation
              JOINT lThumb1
              {
                OFFSET 1.2192 -0.487915 3.41376
                CHANNELS 3 Zrotation Xrotation Yrotation
                JOINT lThumb2
                {
                  OFFSET 3.37035 -0.52449 3.41376
                  CHANNELS 3 Zrotation Xrotation Yrotation
                  End Site
                  {
                    OFFSET 1.78271 -1.18214 1.43049
                  }
                }
              }
              JOINT lIndex1
              {
                OFFSET 7.75947 0.938293 5.60832
                CHANNELS 3 Zrotation Xrotation Yrotation
                JOINT lIndex2
                {
                  OFFSET 2.54057 -0.884171 1.56538
                  CHANNELS 3 Zrotation Xrotation Yrotation
                  End Site
                  {
                    OFFSET 1.62519 -0.234802 1.16502
                  }
                }
              }
              JOINT lMid1
              {
                OFFSET 8.24714 1.18213 3.41376
                CHANNELS 3 Zrotation Xrotation Yrotation
                JOINT lMid2
                {
                  OFFSET 3.10165 -0.590103 1.0647
                  CHANNELS 3 Zrotation Xrotation Yrotation
                  End Site
                  {
                    OFFSET 2.48547 -0.328903 0.83742
                  }
                }
              }
              JOINT lRing1
              {
                OFFSET 8.82822 0.546677 1.51678
                CHANNELS 3 Zrotation Xrotation Yrotation
                JOINT lRing2
                {
                  OFFSET 2.60934 -0.819778 -0.0198488
                  CHANNELS 3 Zrotation Xrotation Yrotation
                  End Site
                  {
                    OFFSET 2.33842 -0.294052 0.168128
                  }
                }
              }
              JOINT lPinky1
              {
                OFFSET 8.27202 -0.0477905 -0.4584
                CHANNELS 3 Zrotation Xrotation Yrotation
                JOINT lPinky2
                {
                  OFFSET 1.82734 -0.647385 -0.700984
                  CHANNELS 3 Zrotation Xrotation Yrotation
                  End Site
                  {
                    OFFSET 1.69225 -0.51767 -0.607171
                  }
                }
              }
            }
          }
        }
      }
    }
  }
  JOINT rButtock
  {
    OFFSET -8.77824 4.35084 1.2192
    CHANNELS 3 Zrotation Xrotation Yrotation
    JOINT rThigh
    {
      OFFSET 0.0 -1.70687 -2.19456
      CHANNELS 3 Zrotation Xrotation Yrotation
      JOINT rShin
      {
        OFFSET 0.0 -36.8199 0.73152
        CHANNELS 3 Zrotation Xrotation Yrotation
        JOINT rFoot
        {
          OFFSET 0.73152 -45.1104 -5.12064
          CHANNELS 3 Zrotation Xrotation Yrotation
          End Site
          {
            OFFSET -1.1221 -3.69964 12.103
          }
        }
      }
    }
  }
  JOINT lButtock
  {
    OFFSET 8.77824 4.35084 1.2192
    CHANNELS 3 Zrotation Xrotation Yrotation
    JOINT lThigh
    {
      OFFSET 0.0 -1.70687 -2.19456
      CHANNELS 3 Zrotation Xrotation Yrotation
      JOINT lShin
      {
        OFFSET 0.0 -36.8199 0.73152
        CHANNELS 3 Zrotation Xrotation Yrotation
        JOINT lFoot
        {
          OFFSET -0.73152 -45.1104 -5.12064
          CHANNELS 3 Zrotation Xrotation Yrotation
          End Site
          {
            OFFSET 1.1221 -3.69964 12.103
          }
        }
      }
    }
  }
}
MOTION
Frames: 4
Frame Time: 0.00833333
1.88797 83.672 -96.2321 10.9396 6.7498 -1.6369 17.4462 10.2291 -5.54446 3.42287 -2.12298 -1.01458 5.70274 -4.02109 -0.323265 -33.607 5.67954 -1.13086 -0.0 0.0 0.0 -0.0 0.0 0.0 -2.33643e-13 -8.03313e-15 8.69931e-14 27.1582 -20.71 -1.40621 -13.3888 -6.47168 24.3323 -0.0049311 2.00166 0.281432 -3.22804e-09 1.872e-09 1.53977e-09 -5.57909e-09 3.24426e-09 2.67519e-09 -3.22805e-09 1.872e-09 1.53976e-09 7.73091 5.47488 0.417314 -3.22804e-09 1.872e-09 1.53976e-09 2.90554 0.965183 0.102902 -3.22804e-09 1.872e-09 1.53976e-09 10.2786 0.731801 0.0259123 -3.22805e-09 1.872e-09 1.53977e-09 2.22167 -0.733487 -0.20892 -2.33625e-13 -8.06746e-15 8.66391e-14 -18.9113 -21.7343 6.2102 15.5953 -8.31655 -28.8229 0.00635211 2.27529 -0.319941 -4.17996e-09 -1.7552e-09 5.95734e-10 -7.22696e-09 -3.04274e-09 1.04796e-09 -4.17996e-09 -1.7552e-09 5.95751e-10 -7.73091 5.47488 -0.417314 -4.17996e-09 -1.7552e-09 5.95737e-10 -2.90554 0.965183 -0.102902 -4.17997e-09 -1.7552e-09 5.95736e-10 -10.2786 0.731801 -0.0259123 -4.17995e-09 -1.7552e-09 5.95724e-10 -2.22167 -0.733487 0.20892 -2.03217e-16 0.0 -3.88251e-19 -10.2722 -10.881 2.09921 -0.24842 38.401 0.91219 -8.86621 -12.4906 -26.5448 2.03217e-16 0.0 3.88251e-19 2.28799 -18.1244 6.58112 0.340478 40.0367 -0.680287 0.918003 0.519991 6.37515
1.91037 83.6884 -95.9451 10.9225 6.5837 -1.6909 17.5617 10.2412 -5.43149 3.41031 -2.12653 -0.981997 5.6931 -4.00269 -0.302995 -33.7878 5.62502 -1.0926 -0.0 0.0 0.0 -0.0 0.0 0.0 -2.49665e-13 1.82457e-14 1.08526e-13 27.2999 -20.8421 -1.43875 -13.3694 -6.45673 24.2939 -0.0049657 2.00853 0.282397 -3.91594e-09 2.16467e-09 1.70895e-09 -6.76845e-09 3.75087e-09 2.97025e-09 -3.91595e-09 2.16468e-09 1.70894e-09 7.73091 5.47488 0.417314 -3.91594e-09 2.16468e-09 1.70894e-09 2.90554 0.965183 0.102902 -3.91593e-09 2.16467e-09 1.70894e-09 10.2786 0.731801 0.0259123 -3.91595e-09 2.16467e-09 1.70895e-09 2.22167 -0.733487 -0.20892 -2.49688e-13 1.81577e-14 1.08078e-13 -18.785 -21.9269 6.34728 15.6136 -8.33311 -28.8611 0.00612153 2.23367 -0.314083 -4.54002e-09 -1.93802e-09 7.35552e-10 -7.85001e-09 -3.36055e-09 1.29116e-09 -4.54002e-09 -1.93802e-09 7.35571e-10 -7.73091 5.47488 -0.417314 -4.54002e-09 -1.93802e-09 7.35555e-10 -2.90554 0.965183 -0.102902 -4.54002e-09 -1.93802e-09 7.35552e-10 -10.2786 0.731801 -0.0259123 -4.54001e-09 -1.93802e-09 7.3554e-10 -2.22167 -0.733487 0.20892 -2.03217e-16 0.0 -3.88251e-19 -10.3558 -10.5577 2.00979 -0.244498 38.1704 0.9084 -8.82467 -12.5883 -26.3179 2.03217e-16 0.0 3.88251e-19 2.15416 -18.2567 6.72458 0.327699 39.3941 -0.663679 0.970688 0.256172 6.652
1.92995 83.7034 -95.6632 10.8869 6.4198 -1.7343 17.7002 10.2522 -5.32438 3.40026 -2.14416 -0.949953 5.69583 -3.97255 -0.283982 -33.9853 5.58643 -1.05501 -0.0 0.0 0.0 -0.0 0.0 0.0 -2.52685e-13 3.98148e-14 1.11816e-13 27.4445 -20.9491 -1.46294 -13.3456 -6.43839 24.2466 -0.0051263 2.0439 0.287375 -4.34617e-09 2.34633e-09 1.66363e-09 -7.51273e-09 4.06529e-09 2.8935e-09 -4.34618e-09 2.34634e-09 1.66362e-09 7.73091 5.47488 0.417314 -4.34617e-09 2.34634e-09 1.66362e-09 2.90554 0.965183 0.102902 -4.34617e-09 2.34633e-09 1.66363e-09 10.2786 0.731801 0.0259123 -4.34618e-09 2.34633e-09 1.66364e-09 2.22167 -0.733487 -0.20892 -2.52741e-13 3.96999e-14 1.11319e-13 -18.6552 -22.109 6.50199 15.6311 -8.34893 -28.8977 0.00592033 2.1964 -0.308837 -4.67234e-09 -1.93774e-09 7.46861e-10 -8.07921e-09 -3.36079e-09 1.31099e-09 -4.67234e-09 -1.93774e-09 7.4688e-10 -7.73091 5.47488 -0.417314 -4.67234e-09 -1.93774e-09 7.46864e-10 -2.90554 0.965183 -0.102902 -4.67234e-09 -1.93774e-09 7.46859e-10 -10.2786 0.731801 -0.0259123 -4.67233e-09 -1.93774e-09 7.46848e-10 -2.22167 -0.733487 0.20892 -2.03217e-16 0.0 -3.88251e-19 -10.4057 -10.2438 1.938 -0.240424 37.9294 0.904319 -8.78888 -12.6864 -26.1079 2.03217e-16 0.0 3.88251e-19 2.04361 -18.4241 6.86988 0.316326 38.8045 -0.648645 1.02581 0.00536351 6.93985
1.94299 83.7158 -95.388 10.8236 6.2413 -1.7691 17.868 10.2607 -5.22409 3.3945 -2.18213 -0.918416 5.71328 -3.92105 -0.266844 -34.2057 5.57006 -1.01732 -0.0 0.0 0.0 -0.0 0.0 0.0 -2.37145e-13 5.8095e-14 8.6507e-14 27.5921 -21.0281 -1.46887 -13.3134 -6.41365 24.1826 -0.00553517 2.12994 0.299482 -4.51847e-09 2.43543e-09 1.26342e-09 -7.81187e-09 4.21959e-09 2.20219e-09 -4.51848e-09 2.43543e-09 1.26341e-09 7.73091 5.47488 0.417314 -4.51847e-09 2.43543e-09 1.26342e-09 2.90554 0.965183 0.102902 -4.51847e-09 2.43543e-09 1.26342e-09 10.2786 0.731801 0.0259123 -4.51848e-09 2.43543e-09 1.26343e-09 2.22167 -0.733487 -0.20892 -2.37227e-13 5.79956e-14 8.6026e-14 -18.5203 -22.28 6.68953 15.6489 -8.365 -28.9349 0.00575069 2.16447 -0.304342 -4.53633e-09 -1.64567e-09 5.42705e-10 -7.84447e-09 -2.85504e-09 9.5667e-10 -4.53634e-09 -1.64567e-09 5.42722e-10 -7.73091 5.47488 -0.417314 -4.53633e-09 -1.64567e-09 5.42708e-10 -2.90554 0.965183 -0.102902 -4.53634e-09 -1.64567e-09 5.42703e-10 -10.2786 0.731801 -0.0259123 -4.53633e-09 -1.64567e-09 5.42693e-10 -2.22167 -0.733487 0.20892 -2.03217e-16 0.0 -3.88251e-19 -10.4114 -9.94452 1.89533 -0.236224 37.6781 0.899934 -8.76039 -12.7853 -25.9178 2.03217e-16 0.0 3.88251e-19 1.96686 -18.6276 7.02678 0.306296 38.2716 -0.635129 1.08482 -0.229432 7.25705
